<svg width="145" height="25" viewBox="0 0 145 25" fill="none" xmlns="http://www.w3.org/2000/svg">
<path d="M18.3538 3.84424C17.8681 3.47634 17.6261 3.02863 17.6261 2.49843C17.6261 1.96822 17.8731 1.52322 18.3705 1.16479C18.8662 0.806357 19.452 0.626465 20.1262 0.626465C20.8005 0.626465 21.3763 0.806357 21.8503 1.16479C22.3243 1.52322 22.563 1.96822 22.563 2.49843C22.563 3.02863 22.326 3.47769 21.8503 3.84424C21.3763 4.21214 20.8005 4.39609 20.1262 4.39609C19.452 4.39609 18.8395 4.21214 18.3538 3.84424ZM22.0239 7.1391V19.1161H18.1952V7.1391H22.0239Z" fill="white"/>
<path d="M42.1502 9.93484C41.2423 9.93484 40.5146 10.1783 39.9672 10.6652C39.4181 11.1522 39.1444 11.8406 39.1444 12.7293V19.1147H35.284V12.5237C35.2623 11.7202 34.9986 11.0872 34.4929 10.626C33.9872 10.1648 33.343 9.93348 32.5619 9.93348C31.6757 9.93348 30.9363 10.1607 30.3471 10.6125C29.7563 11.0656 29.4609 11.7716 29.4609 12.7279V19.1134H25.6006V7.13907H29.4609V8.90823C29.8414 8.24142 30.4373 7.74096 31.2484 7.40823C32.0612 7.07415 32.879 6.90778 33.7018 6.90778C36.0651 7.01057 37.6356 7.75449 38.4167 9.13952C39.4715 7.63546 41.022 6.88208 43.0681 6.88208C44.8823 6.88208 46.2843 7.34331 47.2773 8.26711C48.2687 9.19092 48.7644 10.5246 48.7644 12.268V19.1161H44.9357V12.6021C44.9357 11.7649 44.677 11.1102 44.1613 10.6409C43.6439 10.1702 42.9747 9.93619 42.1519 9.93619L42.1502 9.93484Z" fill="white"/>
<path d="M56.0111 7.13907V8.75404C56.3916 8.17243 57.0075 7.71527 57.862 7.38253C58.7165 7.0498 59.6395 6.88208 60.6309 6.88208C62.6136 6.88208 64.3126 7.46369 65.7263 8.62555C67.1399 9.78876 67.8459 11.2847 67.8459 13.1134C67.8459 14.9421 67.1449 16.4853 65.7413 17.6404C64.3377 18.7942 62.6353 19.3717 60.6309 19.3717C59.6395 19.3717 58.7165 19.2094 57.862 18.8848C57.0075 18.5602 56.39 18.1071 56.0111 17.5255V24.9376H52.1508V7.13907H56.0111ZM56.0745 13.1661C56.0745 14.1576 56.4601 14.9448 57.2295 15.525C57.9989 16.1066 58.9218 16.3974 59.9983 16.3974C61.0748 16.3974 62.0178 16.0985 62.7672 15.4993C63.5165 14.9015 63.8904 14.1238 63.8904 13.1661C63.8904 12.2085 63.5099 11.4227 62.7505 10.8072C61.9911 10.1918 61.0731 9.88344 59.9967 9.88344C58.9202 9.88344 57.9705 10.1878 57.2111 10.7937C56.4517 11.401 56.0712 12.1909 56.0712 13.1661H56.0745Z" fill="white"/>
<path d="M70.5046 19.116V0.625H74.3649V19.116H70.5046Z" fill="white"/>
<path d="M78.0984 3.84424C77.6127 3.47634 77.3707 3.02863 77.3707 2.49843C77.3707 1.96822 77.6177 1.52322 78.1151 1.16479C78.6108 0.806357 79.1966 0.626465 79.8709 0.626465C80.5451 0.626465 81.1209 0.806357 81.5949 1.16479C82.0689 1.52322 82.3076 1.96822 82.3076 2.49843C82.3076 3.02863 82.0706 3.47769 81.5949 3.84424C81.1209 4.21214 80.5451 4.39609 79.8709 4.39609C79.1966 4.39609 78.5841 4.21214 78.0984 3.84424ZM81.7685 7.1391V19.1161H77.9399V7.1391H81.7685Z" fill="white"/>
<path d="M97.6857 13.3958L104.617 1.4458H108.099L110.757 19.1158H106.707L105.029 7.34437L99.333 17.1154H96.1052L90.3772 7.34437L88.6682 19.1158H84.6176L87.3063 1.4458H90.7244L97.6857 13.3971V13.3958Z" fill="white"/>
<path d="M123.35 13.5247V7.13916H127.21V19.1162H123.35V17.4241C122.949 18.0395 122.363 18.5184 121.594 18.8606C120.823 19.2028 120.048 19.3732 119.267 19.3732C117.473 19.3732 116.055 18.9282 115.011 18.0395C113.967 17.1509 113.444 15.8768 113.444 14.2185V7.13916H117.336V13.6532C117.336 14.5594 117.61 15.2303 118.159 15.6658C118.708 16.1013 119.372 16.3204 120.152 16.3204C121.058 16.3204 121.818 16.0945 122.43 15.6414C123.041 15.1883 123.348 14.4836 123.348 13.526L123.35 13.5247Z" fill="white"/>
<path d="M135.089 19.1162L128.887 7.13916H133.001L136.798 15.1153L140.595 7.13916H144.741L138.507 19.1162H135.089Z" fill="white"/>
<path d="M15.4865 13.9329C15.4631 12.9253 15.0409 12.0015 14.2698 11.1886C13.0999 9.89551 10.5981 9.20164 8.58859 8.79316C8.4701 8.77423 8.3516 8.76611 8.23477 8.76611C7.40361 8.76611 6.64423 9.21517 6.41725 9.89551C6.16523 10.6489 6.65591 11.4199 7.52545 11.7066L7.54548 11.7134L7.69569 11.7553C8.27649 11.8757 8.89235 12.0001 9.44311 12.1935C9.46982 12.203 9.49819 12.2125 9.52323 12.2219C10.0323 12.4045 10.4395 12.6155 10.7416 12.8549C10.8501 12.9415 10.9469 13.0335 11.0303 13.1282C11.1355 13.2499 11.2223 13.3824 11.2857 13.5218C11.3975 13.7639 11.4426 14.0276 11.4225 14.3171C11.3791 14.9325 11.032 15.4411 10.3794 15.8428C9.72517 16.2445 8.87065 16.446 7.81752 16.446C7.11154 16.446 6.49235 16.3486 5.96328 16.1539C5.91655 16.1376 5.87149 16.1187 5.82476 16.1011C5.57107 15.997 5.33741 15.8685 5.12712 15.7156C4.77663 15.4627 4.51293 15.1841 4.33268 14.8784C4.24923 14.7364 4.18414 14.5889 4.13741 14.4361C4.09068 14.2833 4.06231 14.1237 4.05229 13.96H0C0 14.7201 0.176912 15.4208 0.534075 16.0592C1.11655 17.1074 2.17969 17.9704 3.4064 18.5398C5.43254 19.4582 7.95772 19.5894 10.2058 19.1728C11.2957 18.9564 12.2754 18.5817 13.1466 18.0488C14.7872 17.0844 15.5466 15.5452 15.4882 13.9343L15.4865 13.9329Z" fill="white"/>
<path d="M12.7661 2.68897C12.2938 2.35353 11.7764 2.07626 11.2123 1.85714C11.1622 1.8382 11.1104 1.81791 11.0587 1.79898C11.012 1.78275 10.9669 1.76516 10.9202 1.74893C9.93214 1.40944 8.81225 1.23901 7.56051 1.23901C5.51434 1.23901 3.78026 1.72188 2.35662 2.68762C0.932973 3.65471 0.221985 4.89908 0.221985 6.41937C0.221985 8.33867 1.38527 9.76969 3.71183 10.7138C3.84035 10.7652 3.97053 10.8152 4.10238 10.8626C4.19417 10.8964 4.28597 10.9288 4.3811 10.96C4.42616 10.9748 4.46955 10.9897 4.51462 11.0046C4.31934 10.4974 4.31267 9.9577 4.49626 9.43696C4.6982 8.86347 5.11378 8.36978 5.66121 8.0154C4.70154 7.62045 4.22254 7.06049 4.22254 6.33686C4.22254 5.72144 4.53131 5.22099 5.15551 4.83551C5.77637 4.45002 6.55078 4.25931 7.47873 4.25931C8.12129 4.25931 8.6754 4.34317 9.14271 4.51224C9.1594 4.51765 9.17609 4.52441 9.19278 4.52982C9.45148 4.6245 9.6818 4.74624 9.88708 4.89367C10.2192 5.13307 10.4562 5.41846 10.5964 5.7512C10.7032 6.00007 10.7566 6.27329 10.7566 6.57356H14.8073C14.8073 4.94912 14.1263 3.65471 12.7661 2.68897Z" fill="white"/>
</svg>
