<svg width="145" height="30" viewBox="0 0 145 30" fill="none" xmlns="http://www.w3.org/2000/svg">
<path d="M18.3538 3.97198C17.8681 3.51802 17.6261 2.96558 17.6261 2.31134C17.6261 1.6571 17.8731 1.108 18.3705 0.665721C18.8662 0.22344 19.452 0.00146484 20.1262 0.00146484C20.8005 0.00146484 21.3763 0.22344 21.8503 0.665721C22.3243 1.108 22.563 1.6571 22.563 2.31134C22.563 2.96558 22.326 3.51968 21.8503 3.97198C21.3763 4.42594 20.8005 4.65292 20.1262 4.65292C19.452 4.65292 18.8395 4.42594 18.3538 3.97198ZM22.0239 8.03763V22.8165H18.1952V8.03763H22.0239Z" fill="#180A2A"/>
<path d="M42.1502 11.4876C41.2423 11.4876 40.5146 11.788 39.9672 12.3889C39.4181 12.9897 39.1444 13.8392 39.1444 14.9357V22.815H35.284V14.682C35.2623 13.6907 34.9986 12.9096 34.4929 12.3405C33.9872 11.7713 33.343 11.4859 32.5619 11.4859C31.6757 11.4859 30.9363 11.7663 30.3472 12.3238C29.7564 12.8829 29.4609 13.7541 29.4609 14.9341V22.8133H25.6006V8.03781H29.4609V10.2208C29.8415 9.39803 30.4373 8.78051 31.2484 8.36994C32.0612 7.9577 32.879 7.75241 33.7018 7.75241C36.0651 7.87926 37.6356 8.7972 38.4167 10.5062C39.4715 8.65033 41.022 7.7207 43.0682 7.7207C44.8824 7.7207 46.2843 8.28983 47.2774 9.42974C48.2687 10.5697 48.7644 12.2153 48.7644 14.3666V22.8167H44.9358V14.7788C44.9358 13.7457 44.6771 12.9379 44.1614 12.3588C43.644 11.778 42.9747 11.4893 42.1519 11.4893L42.1502 11.4876Z" fill="#180A2A"/>
<path d="M56.0112 8.03781V10.0306C56.3918 9.31291 57.0076 8.7488 57.8621 8.33823C58.7167 7.92766 59.6396 7.7207 60.631 7.7207C62.6137 7.7207 64.3128 8.43837 65.7264 9.87202C67.14 11.3074 67.846 13.1532 67.846 15.4097C67.846 17.6662 67.145 19.5705 65.7414 20.9958C64.3378 22.4195 62.6354 23.1321 60.631 23.1321C59.6396 23.1321 58.7167 22.9318 57.8621 22.5313C57.0076 22.1307 56.3901 21.5716 56.0112 20.8539V30H52.1509V8.03781H56.0112ZM56.0747 15.4748C56.0747 16.6982 56.4602 17.6695 57.2296 18.3855C57.999 19.1032 58.9219 19.462 59.9984 19.462C61.0749 19.462 62.0179 19.0932 62.7673 18.3538C63.5167 17.6161 63.8905 16.6564 63.8905 15.4748C63.8905 14.2932 63.51 13.3235 62.7506 12.5641C61.9912 11.8047 61.0733 11.4242 59.9968 11.4242C58.9203 11.4242 57.9706 11.7997 57.2112 12.5474C56.4519 13.2968 56.0713 14.2715 56.0713 15.4748H56.0747Z" fill="#180A2A"/>
<path d="M70.5046 22.8167V0H74.365V22.8167H70.5046Z" fill="#180A2A"/>
<path d="M78.0984 3.97198C77.6127 3.51802 77.3707 2.96558 77.3707 2.31134C77.3707 1.6571 77.6177 1.108 78.1151 0.665721C78.6108 0.22344 79.1966 0.00146484 79.8709 0.00146484C80.5451 0.00146484 81.1209 0.22344 81.5949 0.665721C82.0689 1.108 82.3076 1.6571 82.3076 2.31134C82.3076 2.96558 82.0706 3.51968 81.5949 3.97198C81.1209 4.42594 80.5451 4.65292 79.8709 4.65292C79.1966 4.65292 78.5841 4.42594 78.0984 3.97198ZM81.7685 8.03763V22.8165H77.9399V8.03763H81.7685Z" fill="#180A2A"/>
<path d="M97.6858 15.7585L104.617 1.01306H108.099L110.757 22.8167H106.707L105.029 8.2915L99.3331 20.3482H96.1053L90.3773 8.2915L88.6683 22.8167H84.6177L87.3064 1.01306H90.7245L97.6858 15.7602V15.7585Z" fill="#903DF7"/>
<path d="M123.35 15.9171V8.03784H127.21V22.8167H123.35V20.7288C122.949 21.4882 122.363 22.079 121.594 22.5013C120.823 22.9235 120.049 23.1338 119.267 23.1338C117.473 23.1338 116.055 22.5847 115.012 21.4882C113.967 20.3917 113.444 18.8195 113.444 16.7733V8.03784H117.336V16.0757C117.336 17.1939 117.61 18.0217 118.159 18.5591C118.708 19.0965 119.373 19.3669 120.152 19.3669C121.058 19.3669 121.818 19.0882 122.43 18.5291C123.041 17.97 123.348 17.1004 123.348 15.9188L123.35 15.9171Z" fill="#903DF7"/>
<path d="M135.089 22.8167L128.887 8.03784H133.001L136.798 17.8798L140.595 8.03784H144.741L138.507 22.8167H135.089Z" fill="#903DF7"/>
<path d="M15.4865 16.4213C15.4631 15.1779 15.0409 14.038 14.2698 13.0349C13.0999 11.4394 10.5981 10.5832 8.58859 10.0792C8.4701 10.0558 8.3516 10.0458 8.23477 10.0458C7.40362 10.0458 6.64423 10.5999 6.41725 11.4394C6.16523 12.369 6.65591 13.3203 7.52545 13.6741L7.54548 13.6825L7.69569 13.7342C8.27649 13.8828 8.89235 14.0363 9.44312 14.275C9.46982 14.2867 9.49819 14.2983 9.52323 14.31C10.0323 14.5353 10.4395 14.7957 10.7416 15.0911C10.8501 15.1979 10.9469 15.3114 11.0303 15.4283C11.1355 15.5785 11.2223 15.742 11.2857 15.9139C11.3975 16.2127 11.4426 16.5381 11.4225 16.8953C11.3791 17.6547 11.032 18.2822 10.3794 18.7779C9.72517 19.2736 8.87065 19.5223 7.81752 19.5223C7.11154 19.5223 6.49235 19.4021 5.96328 19.1618C5.91655 19.1417 5.87149 19.1184 5.82476 19.0967C5.57107 18.9682 5.33741 18.8096 5.12712 18.621C4.77663 18.3089 4.51293 17.9651 4.33268 17.5879C4.24923 17.4127 4.18414 17.2308 4.13741 17.0422C4.09068 16.8536 4.06231 16.6566 4.05229 16.4547H0C0 17.3926 0.176912 18.2572 0.534075 19.0449C1.11655 20.3384 2.17969 21.4032 3.4064 22.1059C5.43254 23.2391 7.95772 23.401 10.2058 22.8869C11.2957 22.6199 12.2754 22.1576 13.1466 21.5C14.7872 20.31 15.5466 18.4107 15.4882 16.423L15.4865 16.4213Z" fill="#180A2A"/>
<path d="M12.766 2.54696C12.2937 2.13306 11.7763 1.79091 11.2122 1.52054C11.1621 1.49717 11.1104 1.47214 11.0586 1.44877C11.0119 1.42874 10.9668 1.40705 10.9201 1.38702C9.93208 0.968105 8.81219 0.757812 7.56045 0.757812C5.51427 0.757812 3.7802 1.35364 2.35656 2.5453C0.932911 3.73862 0.221924 5.27408 0.221924 7.15002C0.221924 9.51831 1.38521 11.2841 3.71177 12.449C3.84028 12.5125 3.97046 12.5742 4.10231 12.6326C4.19411 12.6744 4.2859 12.7144 4.38103 12.7528C4.4261 12.7712 4.46949 12.7895 4.51455 12.8079C4.31928 12.182 4.31261 11.5161 4.49619 10.8735C4.69814 10.1659 5.11372 9.5567 5.66114 9.11942C4.70148 8.63208 4.22248 7.94112 4.22248 7.04822C4.22248 6.28883 4.53124 5.6713 5.15544 5.19564C5.7763 4.71998 6.55071 4.48466 7.47867 4.48466C8.12123 4.48466 8.67533 4.58813 9.14265 4.79676C9.15934 4.80343 9.17603 4.81178 9.19272 4.81845C9.45141 4.93528 9.68173 5.08549 9.88701 5.26741C10.2191 5.56282 10.4561 5.91498 10.5963 6.32555C10.7031 6.63264 10.7566 6.96977 10.7566 7.34029H14.8072C14.8072 5.33584 14.1262 3.73862 12.766 2.54696Z" fill="#903DF7"/>
</svg>
