<svg width="19" height="20" viewBox="0 0 19 20" fill="none" xmlns="http://www.w3.org/2000/svg">
<path d="M1.90625 0.59375C1.44922 0.59375 1.05371 0.760742 0.719727 1.09473C0.385742 1.42871 0.21875 1.82422 0.21875 2.28125V17.4688C0.21875 17.9258 0.385742 18.3213 0.719727 18.6553C1.05371 18.9893 1.44922 19.1562 1.90625 19.1562H17.0938C17.5508 19.1562 17.9463 18.9893 18.2803 18.6553C18.6143 18.3213 18.7812 17.9258 18.7812 17.4688V2.28125C18.7812 1.82422 18.6143 1.42871 18.2803 1.09473C17.9463 0.760742 17.5508 0.59375 17.0938 0.59375H1.90625ZM1.90625 2.28125H17.0938V17.4688H12.7168V11.7734H14.9053L15.2217 9.24219H12.7168V7.60742C12.7168 7.18555 12.7871 6.88672 12.9277 6.71094C13.1211 6.48242 13.4639 6.36816 13.9561 6.36816H15.3271V4.07422C14.9053 4.02148 14.2461 3.99512 13.3496 3.99512C12.3477 3.99512 11.5479 4.28516 10.9502 4.86523C10.3701 5.44531 10.0801 6.27148 10.0801 7.34375V9.24219H7.86523V11.7734H10.0801V17.4688H1.90625V2.28125Z" fill="#180A2A"/>
</svg>
