<svg width="19" height="20" viewBox="0 0 19 20" fill="none" xmlns="http://www.w3.org/2000/svg">
<path d="M5.67676 0.59375C4.69238 0.59375 3.77832 0.839844 2.93457 1.33203C2.1084 1.82422 1.44922 2.49219 0.957031 3.33594C0.464844 4.16211 0.21875 5.06738 0.21875 6.05176V13.6982C0.21875 14.6826 0.464844 15.5967 0.957031 16.4404C1.44922 17.2666 2.1084 17.9258 2.93457 18.418C3.77832 18.9102 4.69238 19.1562 5.67676 19.1562H13.3232C14.3076 19.1562 15.2129 18.9102 16.0391 18.418C16.8828 17.9258 17.5508 17.2666 18.043 16.4404C18.5352 15.5967 18.7812 14.6826 18.7812 13.6982V6.05176C18.7812 5.06738 18.5352 4.16211 18.043 3.33594C17.5508 2.49219 16.8828 1.82422 16.0391 1.33203C15.2129 0.839844 14.3076 0.59375 13.3232 0.59375H5.67676ZM5.67676 2.28125H13.3232C14.0088 2.28125 14.6416 2.44824 15.2217 2.78223C15.8018 3.11621 16.2588 3.57324 16.5928 4.15332C16.9268 4.7334 17.0938 5.36621 17.0938 6.05176V13.6982C17.0938 14.3838 16.9268 15.0166 16.5928 15.5967C16.2588 16.1768 15.8018 16.6338 15.2217 16.9678C14.6416 17.3018 14.0088 17.4688 13.3232 17.4688H5.67676C4.99121 17.4688 4.3584 17.3018 3.77832 16.9678C3.19824 16.6338 2.74121 16.1768 2.40723 15.5967C2.07324 15.0166 1.90625 14.3838 1.90625 13.6982V6.05176C1.90625 5.36621 2.07324 4.7334 2.40723 4.15332C2.74121 3.57324 3.19824 3.11621 3.77832 2.78223C4.3584 2.44824 4.99121 2.28125 5.67676 2.28125ZM14.4834 4.12695C14.2725 4.12695 14.0879 4.20605 13.9297 4.36426C13.7891 4.50488 13.7188 4.68066 13.7188 4.8916C13.7188 5.10254 13.7891 5.28711 13.9297 5.44531C14.0879 5.58594 14.2725 5.65625 14.4834 5.65625C14.6943 5.65625 14.8701 5.58594 15.0107 5.44531C15.1689 5.28711 15.248 5.10254 15.248 4.8916C15.248 4.68066 15.1689 4.50488 15.0107 4.36426C14.8701 4.20605 14.6943 4.12695 14.4834 4.12695ZM9.5 4.8125C8.58594 4.8125 7.74219 5.04102 6.96875 5.49805C6.19531 5.95508 5.58008 6.57031 5.12305 7.34375C4.66602 8.11719 4.4375 8.96094 4.4375 9.875C4.4375 10.7891 4.66602 11.6328 5.12305 12.4062C5.58008 13.1797 6.19531 13.7949 6.96875 14.252C7.74219 14.709 8.58594 14.9375 9.5 14.9375C10.4141 14.9375 11.2578 14.709 12.0312 14.252C12.8047 13.7949 13.4199 13.1797 13.877 12.4062C14.334 11.6328 14.5625 10.7891 14.5625 9.875C14.5625 8.96094 14.334 8.11719 13.877 7.34375C13.4199 6.57031 12.8047 5.95508 12.0312 5.49805C11.2578 5.04102 10.4141 4.8125 9.5 4.8125ZM9.5 6.5C10.1152 6.5 10.6777 6.64941 11.1875 6.94824C11.7148 7.24707 12.1279 7.66016 12.4268 8.1875C12.7256 8.69727 12.875 9.25977 12.875 9.875C12.875 10.4902 12.7256 11.0615 12.4268 11.5889C12.1279 12.0986 11.7148 12.5029 11.1875 12.8018C10.6777 13.1006 10.1152 13.25 9.5 13.25C8.88477 13.25 8.31348 13.1006 7.78613 12.8018C7.27637 12.5029 6.87207 12.0986 6.57324 11.5889C6.27441 11.0615 6.125 10.4902 6.125 9.875C6.125 9.25977 6.27441 8.69727 6.57324 8.1875C6.87207 7.66016 7.27637 7.24707 7.78613 6.94824C8.31348 6.64941 8.88477 6.5 9.5 6.5Z" fill="#180A2A"/>
</svg>
