<svg width="21" height="18" viewBox="0 0 21 18" fill="none" xmlns="http://www.w3.org/2000/svg">
<path d="M20.625 2.59961C19.8691 2.93359 19.0781 3.15332 18.252 3.25879C18.6738 2.99512 19.043 2.66992 19.3594 2.2832C19.6758 1.87891 19.9131 1.43066 20.0713 0.938477C19.2451 1.43066 18.3662 1.77344 17.4346 1.9668C17.0479 1.54492 16.5908 1.21973 16.0635 0.991211C15.5361 0.762695 14.9824 0.648438 14.4023 0.648438C13.6465 0.648438 12.9521 0.833008 12.3193 1.20215C11.6865 1.57129 11.1768 2.08105 10.79 2.73145C10.4209 3.36426 10.2363 4.0498 10.2363 4.78809C10.2363 5.12207 10.2715 5.43848 10.3418 5.7373C8.6543 5.66699 7.05469 5.23633 5.54297 4.44531C4.08398 3.70703 2.82715 2.69629 1.77246 1.41309C1.40332 2.0459 1.21875 2.74023 1.21875 3.49609C1.21875 4.19922 1.38574 4.8584 1.71973 5.47363C2.05371 6.08887 2.50195 6.58105 3.06445 6.9502C2.39648 6.93262 1.77246 6.75684 1.19238 6.42285V6.47559C1.19238 7.47754 1.50879 8.36523 2.1416 9.13867C2.77441 9.89453 3.56543 10.3691 4.51465 10.5625C4.16309 10.6504 3.80273 10.6943 3.43359 10.6943C3.16992 10.6943 2.90625 10.6768 2.64258 10.6416C2.90625 11.4678 3.38965 12.1533 4.09277 12.6982C4.81348 13.2256 5.62207 13.498 6.51855 13.5156C5.79785 14.0781 4.99805 14.5176 4.11914 14.834C3.24023 15.1504 2.32617 15.3086 1.37695 15.3086C1.04297 15.291 0.708984 15.2646 0.375 15.2295C1.30664 15.8271 2.30859 16.2842 3.38086 16.6006C4.4707 16.9346 5.58691 17.1016 6.72949 17.1016C8.5752 17.1016 10.2715 16.7412 11.8184 16.0205C13.2246 15.3701 14.4551 14.4473 15.5098 13.252C16.4941 12.1445 17.2588 10.8789 17.8037 9.45508C18.3135 8.06641 18.5684 6.67773 18.5684 5.28906L18.542 4.73535C19.3682 4.15527 20.0625 3.44336 20.625 2.59961Z" fill="#180A2A"/>
</svg>
