<svg width="23" height="18" viewBox="0 0 23 18" fill="none" xmlns="http://www.w3.org/2000/svg">
<path d="M11.5 0.4375C9.02148 0.4375 6.45508 0.630859 3.80078 1.01758C3.08008 1.12305 2.45605 1.42188 1.92871 1.91406C1.41895 2.40625 1.10254 3.00391 0.979492 3.70703C0.680664 5.3418 0.53125 7.06445 0.53125 8.875C0.53125 10.6855 0.680664 12.4082 0.979492 14.043C1.10254 14.7461 1.42773 15.3438 1.95508 15.8359C2.48242 16.3281 3.09766 16.627 3.80078 16.7324C6.45508 17.1191 9.02148 17.3125 11.5 17.3125C13.9785 17.3125 16.5449 17.1191 19.1992 16.7324C19.9023 16.627 20.5176 16.3281 21.0449 15.8359C21.5723 15.3438 21.8975 14.7461 22.0205 14.043C22.3193 12.4082 22.4688 10.6855 22.4688 8.875C22.4688 7.04688 22.3193 5.32422 22.0205 3.70703C21.8975 3.00391 21.5723 2.40625 21.0449 1.91406C20.5352 1.42188 19.9199 1.12305 19.1992 1.01758C16.5449 0.630859 13.9785 0.4375 11.5 0.4375ZM11.5 2.125C13.9258 2.125 16.4131 2.30957 18.9619 2.67871C19.3135 2.73145 19.6123 2.88086 19.8584 3.12695C20.1221 3.37305 20.2891 3.67187 20.3594 4.02344C20.6406 5.55273 20.7812 7.16992 20.7812 8.875C20.7812 10.5801 20.6406 12.1973 20.3594 13.7266C20.2891 14.0781 20.1221 14.377 19.8584 14.623C19.6123 14.8691 19.3135 15.0186 18.9619 15.0713C16.4131 15.4404 13.9258 15.625 11.5 15.625C9.07422 15.625 6.58691 15.4404 4.03809 15.0713C3.68652 15.0186 3.37891 14.8691 3.11523 14.623C2.86914 14.377 2.71094 14.0781 2.64062 13.7266C2.35938 12.1973 2.21875 10.5801 2.21875 8.875C2.21875 7.16992 2.35938 5.55273 2.64062 4.02344C2.71094 3.67187 2.86914 3.37305 3.11523 3.12695C3.37891 2.88086 3.68652 2.73145 4.03809 2.67871C6.56934 2.30957 9.05664 2.125 11.5 2.125ZM8.96875 4.0498V13.7002L10.2344 12.9883L16.1406 9.61328L17.4062 8.875L16.1406 8.13672L10.2344 4.76172L8.96875 4.0498ZM10.6562 6.9502L14.0049 8.875L10.6562 10.7998V6.9502Z" fill="#180A2A"/>
</svg>
